<?xml version="1.0" encoding="UTF-8"?>
<svg id="b" data-name="Capa 2" xmlns="http://www.w3.org/2000/svg" width="500.719" height="170.056" viewBox="0 0 500.719 170.056">
  <g id="c" data-name="Capa 1">
    <g>
      <path d="m120.605,60.86c3.095-9.347,3.123-19.438.079-28.802-3.044-9.364-9.001-17.509-17.001-23.249C95.683,3.069,86.004-.113,76.159.003H3.444v57.226h77.071l11.409,32.76c.033-.011.063-.025.096-.036l27.697,76.731h32.041v-82.669h-48.28c8.031-5.696,14.032-13.809,17.127-23.156Z"/>
      <circle cx="45.733" cy="124.323" r="45.733" transform="translate(-83.479 153.514) rotate(-82.534)"/>
      <path d="m474.038,20.87c-13.999.016-27.419,5.584-37.318,15.482-9.898,9.898-15.466,23.319-15.482,37.318v72.145h20.869v-72.145c.01-8.466,3.377-16.582,9.363-22.568,5.986-5.986,14.103-9.353,22.568-9.363h26.68v-20.869h-26.68Z"/>
      <path d="m369.43,105.169c7.845-6.643,15.243-13.798,22.142-21.418l.963-1.111c3.882-4.31,7.073-9.195,9.458-14.481l.35-.883c1.605-4.125,2.439-8.51,2.458-12.936.136-6.792-1.815-13.462-5.592-19.11l-.375-.548c-3.954-5.488-9.327-9.798-15.54-12.468l-.668-.297c-6.833-2.969-15.014-4.478-24.299-4.478-8.366-.178-16.664,1.538-24.274,5.018l-.749.368c-6.221,3.038-11.462,7.765-15.125,13.641l-.348.578c-3.1,5.417-4.868,11.495-5.157,17.73h23.795c.278-2.968,1.13-5.854,2.51-8.497,1.807-3.338,4.56-6.066,7.914-7.842l.571-.3c3.341-1.624,7.017-2.439,10.731-2.378,3.895-.062,7.75.801,11.246,2.518l.598.316c3.054,1.656,5.61,4.094,7.41,7.065l.338.574c1.766,3.266,2.652,6.936,2.572,10.649.025,3.681-.779,7.321-2.352,10.649l-.295.591c-1.648,3.127-3.712,6.016-6.137,8.588l-1.026,1.083c-2.415,2.512-5.275,5.263-8.504,8.187l-47.526,41.607v18.23h91.907v-19.167l-62.044.178,25.044-21.657Z"/>
      <path d="m275.542,22.829c-7.21-3.6-15.51-5.4-24.91-5.4-7.37,0-14.41,1.33-21.15,3.99-6.74,2.51-12.69,6.03-17.86,10.58-4.91,4.3-11.58,14.46-12.55,22.77l23.792.005c1.463-6.079,3.366-8.879,7.648-12.605,4.495-3.91,12.36-6.18,19.88-6.18,8.46,0,15.28,2.27,20.45,6.82,5.32,4.38,7.99,10.18,7.99,17.39v6.03l-44.18,7.36c-9.4,1.57-17.16,4.23-23.27,7.99-5.95,3.76-10.41,8.38-13.39,13.87-2.82,5.32-4.23,11.35-4.23,18.09,0,7.05,1.8,13.24,5.4,18.56,3.61,5.33,8.54,9.56,14.81,12.7,6.42,2.97,13.71,4.46,21.85,4.46,7.21,0,13.87-1.1,19.98-3.29,4.178-1.497,8.319-3.377,11.987-5.898,2.019-1.387,3.909-2.962,5.634-4.7,1.832-1.845,3.344-3.926,4.749-6.202v16.646l20.85.014.02-85.63c0-8.46-2.12-15.91-6.35-22.33-4.07-6.42-9.79-11.43-17.15-15.04Zm3.29,69.56c0,7.36-1.73,14.02-5.17,19.98-3.45,5.95-8.23,10.73-14.34,14.33-6.11,3.45-13.31,5.17-21.62,5.17-6.58,0-12.06-1.8-16.45-5.41-4.23-3.76-6.34-8.3-6.34-13.62,0-5.64,1.88-10.42,5.64-14.34,3.92-3.92,10.1-6.66,18.56-8.22l39.72-6.66v8.77Z"/>
    </g>
  </g>
</svg>