<svg width="161" height="161" viewBox="0 0 161 161" fill="none" xmlns="http://www.w3.org/2000/svg">
<path d="M83.8067 37.9832L132.465 80.1055L83.8067 122.228L79.4492 118.778L107.228 80.1055L79.4492 41.4328L83.8067 37.9832Z" fill="#111218"/>
<path d="M115.514 88.5742C111.03 87.4948 106.464 86.8306 101.814 86.5816C97.1651 86.4155 92.5156 86.3325 87.8662 86.3325L56.082 86.3326C51.4326 86.3326 46.7832 86.4156 42.1338 86.5817C37.4844 86.8307 32.918 87.495 28.4346 88.5743L28.4346 71.6371C32.918 72.7164 37.4844 73.3391 42.1338 73.5052C46.7832 73.7543 51.4326 73.8788 56.082 73.8788L87.8662 73.8787C92.5156 73.8787 97.1651 73.7541 101.814 73.5051C106.464 73.339 111.03 72.7163 115.514 71.637L115.514 88.5742Z" fill="#111218"/>
</svg>
