<svg width="161" height="161" viewBox="0 0 161 161" fill="none" xmlns="http://www.w3.org/2000/svg">
<path d="M89.5316 30.4688C88.3798 35.2532 87.671 40.1263 87.4052 45.0879C87.228 50.0496 87.1394 55.0112 87.1394 59.9729L87.1394 100.238C87.1394 105.199 87.228 110.161 87.4052 115.123C87.671 120.084 88.3798 124.957 89.5316 129.742L71.457 129.742C72.6088 124.957 73.2733 120.084 73.4505 115.123C73.7163 110.161 73.8492 105.199 73.8492 100.238L73.8493 59.9729C73.8493 55.0112 73.7164 50.0496 73.4505 45.0879C73.2733 40.1263 72.6088 35.2532 71.457 30.4688L89.5316 30.4688Z" fill="#111218"/>
<path d="M61.4496 60.9932C60.2978 64.9568 59.589 68.9937 59.3232 73.1041C59.146 77.2145 59.0574 81.3249 59.0574 85.4353L59.0574 105.299C59.0574 109.409 59.146 113.52 59.3232 117.63C59.589 121.74 60.2978 125.777 61.4496 129.741L43.375 129.741C44.5268 125.777 45.1913 121.74 45.3685 117.63C45.6343 113.52 45.7672 109.409 45.7672 105.299L45.7672 85.4353C45.7672 81.3249 45.6343 77.2145 45.3685 73.1041C45.1913 68.9937 44.5268 64.9567 43.375 60.9932L61.4496 60.9932Z" fill="#111218"/>
<path d="M117.524 46.7567C116.372 51.5412 115.663 56.4142 115.397 61.3759C115.22 66.3375 115.132 71.2992 115.132 76.2608L115.132 100.238C115.132 105.2 115.22 110.161 115.397 115.123C115.663 120.085 116.372 124.958 117.524 129.742L99.4492 129.742C100.601 124.958 101.266 120.085 101.443 115.123C101.709 110.161 101.841 105.2 101.841 100.238L101.841 76.2608C101.841 71.2992 101.709 66.3375 101.443 61.3759C101.266 56.4142 100.601 51.5412 99.4492 46.7567L117.524 46.7567Z" fill="#111218"/>
</svg>
