<svg width="161" height="161" viewBox="0 0 161 161" fill="none" xmlns="http://www.w3.org/2000/svg">
<path d="M122.982 65.1269L80.8601 113.785L38.7378 65.1269L42.1875 60.7695L80.8601 88.5484L119.533 60.7695L122.982 65.1269Z" fill="#111218"/>
<path d="M72.3909 96.8346C73.4703 92.3513 74.1345 87.7849 74.3836 83.1355C74.5496 78.486 74.6326 73.8366 74.6326 69.1872L74.6325 45.1387C74.6325 40.4893 74.5495 35.8398 74.3834 31.1904C74.1344 26.541 73.4702 21.9746 72.3908 17.4912L89.328 17.4912C88.2487 21.9746 87.626 26.541 87.4599 31.1904C87.2109 35.8398 87.0863 40.4893 87.0863 45.1387L87.0864 69.1872C87.0864 73.8366 87.211 78.486 87.4601 83.1355C87.6261 87.7849 88.2488 92.3513 89.3281 96.8346L72.3909 96.8346Z" fill="#111218"/>
<path d="M142.757 136.815L18.959 136.815L18.96 105.487L23.96 105.487L27.96 127.815L133.758 127.815L137.758 105.487L142.758 105.487L142.757 136.815Z" fill="#111218"/>
</svg>
