<svg width="161" height="161" viewBox="0 0 161 161" fill="none" xmlns="http://www.w3.org/2000/svg">
<path d="M134.097 66.7656C134.097 88.9063 116.148 106.855 94.0073 106.855C71.8666 106.855 53.918 88.9063 53.918 66.7656C53.918 44.6248 71.8666 26.6762 94.0073 26.6762C116.148 26.6762 134.097 44.6248 134.097 66.7656ZM64.5949 66.7656C64.5949 83.0096 77.7633 96.178 94.0073 96.178C110.251 96.178 123.42 83.0096 123.42 66.7656C123.42 50.5215 110.251 37.3531 94.0073 37.3531C77.7633 37.3531 64.5949 50.5215 64.5949 66.7656Z" fill="#111218"/>
<path d="M67.4617 102.41C64.33 104.327 61.3853 106.524 58.6276 109.001C55.9166 111.525 53.2523 114.096 50.6348 116.713L50.6395 116.707C48.022 119.325 45.4512 121.989 42.9272 124.7C40.4499 127.458 38.253 130.402 36.3367 133.534L26.8014 123.999C29.9331 122.082 32.8544 119.862 35.5654 117.338C38.3232 114.861 41.0108 112.313 43.6283 109.696L43.6236 109.702C46.2411 107.084 48.7885 104.397 51.2658 101.639C53.7899 98.9281 56.0101 96.0068 57.9265 92.8751L67.4617 102.41Z" fill="#111218"/>
</svg>
