<svg width="161" height="161" viewBox="0 0 161 161" fill="none" xmlns="http://www.w3.org/2000/svg">
<path d="M78.917 81.8071L112.453 87.3052L112.14 89.9937L112.453 92.6821L78.917 98.1802L73.4189 131.716L71.1084 131.447L68.7979 131.716L63.2998 98.1802L29.7637 92.6821L30.0762 89.9937L29.7637 87.3052L63.2998 81.8071L68.7979 48.271L71.1084 48.5396L73.4189 48.271L78.917 81.8071Z" fill="#111218"/>
<path d="M111.823 47.8081L131.137 50.9741L130.956 52.522L131.137 54.0708L111.823 57.2368L108.657 76.5503L107.326 76.395L105.995 76.5503L102.829 57.2368L83.5156 54.0708L83.6953 52.522L83.5156 50.9741L102.829 47.8081L105.995 28.4946L107.326 28.6489L108.657 28.4946L111.823 47.8081Z" fill="#111218"/>
</svg>
