<svg width="161" height="161" viewBox="0 0 161 161" fill="none" xmlns="http://www.w3.org/2000/svg">
<path d="M35.1289 69.2114C38.6544 70.0601 42.2451 70.5824 45.9011 70.7782C49.5571 70.9088 53.2132 70.9741 56.8692 70.9741L104.031 70.9741C107.687 70.9741 111.343 70.9088 114.999 70.7782C118.655 70.5824 122.245 70.0601 125.771 69.2114L125.771 82.5298C122.245 81.681 118.655 81.1914 114.999 81.0608C111.343 80.865 107.687 80.767 104.031 80.767L56.8692 80.767C53.2132 80.767 49.5571 80.865 45.9011 81.0608C42.2451 81.1914 38.6544 81.681 35.1289 82.5297L35.1289 69.2114Z" fill="#111218"/>
<path d="M35.1289 110.595C38.6544 111.444 42.2451 111.966 45.9011 112.162C49.5571 112.292 53.2132 112.358 56.8692 112.358L104.031 112.358C107.687 112.358 111.343 112.292 114.999 112.162C118.655 111.966 122.245 111.444 125.771 110.595L125.771 123.913C122.245 123.065 118.655 122.575 114.999 122.444C111.343 122.249 107.687 122.151 104.031 122.151L56.8692 122.151C53.2132 122.151 49.5571 122.249 45.9011 122.444C42.2451 122.575 38.6544 123.065 35.1289 123.913L35.1289 110.595Z" fill="#111218"/>
<path d="M49.875 48.5195C53.4005 49.3682 56.9912 49.8905 60.6472 50.0864C64.3032 50.217 67.9593 50.2822 71.6153 50.2822L89.2831 50.2822C92.9391 50.2822 96.5952 50.217 100.251 50.0864C103.907 49.8905 107.498 49.3682 111.023 48.5195L111.023 61.8379C107.498 60.9892 103.907 60.4995 100.251 60.369C96.5952 60.1731 92.9391 60.0752 89.2831 60.0752L71.6153 60.0752C67.9593 60.0752 64.3032 60.1731 60.6472 60.369C56.9912 60.4995 53.4005 60.9892 49.875 61.8379L49.875 48.5195Z" fill="#111218"/>
<path d="M49.875 89.9034C53.4005 90.7521 56.9912 91.2744 60.6472 91.4703C64.3032 91.6008 67.9593 91.6661 71.6153 91.6661L89.2831 91.6661C92.9391 91.6661 96.5952 91.6009 100.251 91.4703C103.907 91.2744 107.498 90.7521 111.023 89.9034L111.023 103.222C107.498 102.373 103.907 101.883 100.251 101.753C96.5952 101.557 92.9391 101.459 89.2831 101.459L71.6153 101.459C67.9593 101.459 64.3032 101.557 60.6472 101.753C56.9912 101.883 53.4005 102.373 49.875 103.222L49.875 89.9034Z" fill="#111218"/>
</svg>
