<svg width="161" height="161" viewBox="0 0 161 161" fill="none" xmlns="http://www.w3.org/2000/svg">
<path d="M137.773 128.194L22.9756 128.194L22.9756 39.1178L137.773 39.1178L137.773 128.194ZM31.9756 48.1178L31.9756 119.194L128.773 119.194L128.773 48.1178L31.9756 48.1178Z" fill="#111218"/>
<rect x="142.074" y="115.771" width="16.3281" height="16.3281" transform="rotate(90 142.074 115.771)" fill="#111218"/>
<rect x="142.074" y="35.2119" width="16.3281" height="16.3281" transform="rotate(90 142.074 35.2119)" fill="#111218"/>
<rect x="35" y="35.2119" width="16.3281" height="16.3281" transform="rotate(90 35 35.2119)" fill="#111218"/>
<rect x="35" y="115.771" width="16.3281" height="16.3281" transform="rotate(90 35 115.771)" fill="#111218"/>
<path d="M115.289 92.7699C111.325 91.6181 107.288 90.9093 103.178 90.6435C99.0677 90.4663 94.9573 90.3777 90.847 90.3777L70.9834 90.3777C66.873 90.3777 62.7627 90.4663 58.6523 90.6435C54.5419 90.9093 50.5049 91.6181 46.5413 92.7699L46.5413 74.6953C50.5049 75.8471 54.5419 76.5116 58.6523 76.6888C62.7627 76.9546 66.873 77.0875 70.9834 77.0875L90.847 77.0875C94.9573 77.0875 99.0677 76.9546 103.178 76.6888C107.288 76.5116 111.325 75.8471 115.289 74.6953L115.289 92.7699Z" fill="#111218"/>
</svg>
