<?xml version="1.0" encoding="UTF-8"?>
<svg id="b" data-name="Capa 2" xmlns="http://www.w3.org/2000/svg" width="1251.457" height="102.025" viewBox="0 0 1251.457 102.025">
  <g id="c" data-name="Capa 1">
    <g>
      <path d="m639.331.001c-7.513,0-13.603,22.838-13.603,51.01s6.09,51.011,13.603,51.011,13.603-22.838,13.603-51.011S646.844.001,639.331.001Z" fill="#f7ff8e"/>
      <path d="m675.041,0c-12.208,0-22.104,22.838-22.104,51.011s9.896,51.01,22.104,51.01,22.104-22.838,22.104-51.01S687.248,0,675.041,0Z" fill="#f7ff8e"/>
      <path d="m816.169.001c-28.156,0-50.983,22.813-51.009,50.964C765.142,22.815,749.924.004,731.154.004s-34.007,22.838-34.007,51.011,15.225,51.01,34.007,51.01,33.99-22.813,34.006-50.964c.027,28.149,22.853,50.961,51.009,50.961s51.01-22.838,51.01-51.01S844.341.001,816.169.001Z" fill="#f7ff8e"/>
      <path d="m1135.833.001c-63.811,0-115.548,22.805-115.622,50.951C1020.161,22.806,985.926.001,943.698.001s-76.516,22.838-76.516,51.011,34.257,51.01,76.516,51.01,76.463-22.805,76.513-50.95c.074,28.144,51.811,50.95,115.622,50.95s115.624-22.838,115.624-51.01S1199.69.001,1135.833.001Z" fill="#f7ff8e"/>
      <path d="m612.126.001c-7.512,0-13.603,22.838-13.603,51.01s6.09,51.011,13.603,51.011,13.603-22.838,13.603-51.011S619.638.001,612.126.001Z" fill="#f7ff8e"/>
      <path d="m576.417,0c-12.208,0-22.104,22.838-22.104,51.011s9.896,51.01,22.104,51.01,22.104-22.838,22.104-51.01S588.625,0,576.417,0Z" fill="#f7ff8e"/>
      <path d="m520.303.004c-18.77,0-33.988,22.811-34.006,50.962C486.271,22.814,463.444.001,435.288.001s-51.01,22.838-51.01,51.011,22.838,51.01,51.01,51.01,50.982-22.812,51.009-50.961c.017,28.151,15.235,50.964,34.006,50.964s34.007-22.838,34.007-51.01S539.085.004,520.303.004Z" fill="#f7ff8e"/>
      <path d="m307.759.001C265.531.001,231.296,22.806,231.246,50.952,231.172,22.806,179.435.001,115.624.001S0,22.839,0,51.012s51.767,51.01,115.624,51.01,115.548-22.805,115.622-50.95c.049,28.144,34.285,50.95,76.513,50.95s76.516-22.838,76.516-51.01S350.018.001,307.759.001Z" fill="#f7ff8e"/>
    </g>
  </g>
</svg>