<?xml version="1.0" encoding="UTF-8"?>
<svg id="b" data-name="Capa 2" xmlns="http://www.w3.org/2000/svg" width="625.729" height="102.025" viewBox="0 0 625.729 102.025">
  <g id="c" data-name="Capa 1">
    <g>
      <path d="m13.603.001C6.09.001,0,22.839,0,51.011s6.09,51.011,13.603,51.011,13.603-22.838,13.603-51.011S21.115.001,13.603.001Z" fill="#ffcdbf"/>
      <path d="m49.312,0c-12.208,0-22.104,22.838-22.104,51.011s9.896,51.01,22.104,51.01,22.104-22.838,22.104-51.01S61.52,0,49.312,0Z" fill="#ffcdbf"/>
      <path d="m190.44.001C162.284.001,139.457,22.814,139.432,50.965,139.414,22.815,124.195.004,105.425.004s-34.007,22.838-34.007,51.011,15.225,51.01,34.007,51.01,33.99-22.813,34.006-50.964c.027,28.149,22.853,50.961,51.009,50.961s51.01-22.838,51.01-51.01S218.612.001,190.44.001Z" fill="#ffcdbf"/>
      <path d="m510.104.001C446.293.001,394.556,22.806,394.482,50.952,394.433,22.806,360.197.001,317.969.001s-76.516,22.838-76.516,51.011,34.257,51.01,76.516,51.01,76.463-22.805,76.513-50.95c.074,28.144,51.811,50.95,115.622,50.95s115.624-22.838,115.624-51.01S573.961.001,510.104.001Z" fill="#ffcdbf"/>
    </g>
  </g>
</svg>