<?xml version="1.0" encoding="UTF-8"?>
<svg id="b" data-name="Capa 2" xmlns="http://www.w3.org/2000/svg" width="1251.456" height="102.021" viewBox="0 0 1251.456 102.021">
  <g id="c" data-name="Capa 1">
    <g>
      <rect x="639.33" y="51.011" width="13.604" height="51.01" fill="#111218"/>
      <rect x="625.728" width="13.604" height="51.01" fill="#111218"/>
      <rect x="675.039" y="51.011" width="22.105" height="51.01" fill="#111218"/>
      <rect x="652.933" width="22.105" height="51.01" fill="#111218"/>
      <rect x="731.148" y="51.011" width="34.008" height="51.01" fill="#111218"/>
      <rect x="697.14" width="34.008" height="51.01" fill="#111218"/>
      <rect x="816.167" y="51.011" width="51.012" height="51.01" fill="#111218"/>
      <rect x="765.155" width="51.012" height="51.01" fill="#111218"/>
      <rect x="943.687" y="51.011" width="76.519" height="51.01" fill="#111218"/>
      <rect x="867.176" width="76.519" height="51.01" fill="#111218"/>
      <rect x="1135.828" y="51.011" width="115.628" height="51.01" fill="#111218"/>
      <rect x="1020.207" width="115.628" height="51.01" fill="#111218"/>
      <rect x="598.523" width="13.603" height="51.01" fill="#111218"/>
      <rect x="612.125" y="51.011" width="13.603" height="51.01" fill="#111218"/>
      <rect x="554.312" width="22.105" height="51.01" fill="#111218"/>
      <rect x="576.418" y="51.011" width="22.105" height="51.01" fill="#111218"/>
      <rect x="486.3" width="34.008" height="51.01" fill="#111218"/>
      <rect x="520.308" y="51.011" width="34.008" height="51.01" fill="#111218"/>
      <rect x="384.277" width="51.012" height="51.01" fill="#111218"/>
      <rect x="435.289" y="51.011" width="51.012" height="51.01" fill="#111218"/>
      <rect x="231.25" width="76.519" height="51.01" fill="#111218"/>
      <rect x="307.761" y="51.011" width="76.519" height="51.01" fill="#111218"/>
      <rect width="115.628" height="51.01" fill="#111218"/>
      <rect x="115.621" y="51.011" width="115.628" height="51.01" fill="#111218"/>
    </g>
  </g>
</svg>