<?xml version="1.0" encoding="UTF-8"?>
<svg id="b" data-name="Capa 2" xmlns="http://www.w3.org/2000/svg" width="1251.458" height="102.026" viewBox="0 0 1251.458 102.026">
  <g id="c" data-name="Capa 1">
    <g>
      <polygon points="1020.209 26.162 1020.209 0 867.178 26.162 867.178 0 765.157 26.162 765.157 0 697.144 26.162 697.144 0 652.935 26.162 652.935 0 625.729 26.162 625.729 75.861 652.935 102.021 652.935 75.858 697.144 102.021 697.144 75.858 765.157 102.021 765.157 75.858 867.178 102.021 867.178 75.858 1020.209 102.021 1020.209 75.858 1251.458 102.021 1251.458 0 1020.209 26.162" fill="#ffcdbf"/>
      <polygon points="598.523 26.167 554.314 .005 554.314 26.167 486.3 .005 486.3 26.167 384.279 .005 384.279 26.167 231.248 .005 231.248 26.167 0 .005 0 102.026 231.248 75.863 231.248 102.026 384.279 75.863 384.279 102.026 486.3 75.863 486.3 102.026 554.314 75.863 554.314 102.026 598.523 75.863 598.523 102.026 625.729 75.861 625.729 26.167 598.523 .005 598.523 26.167" fill="#ffcdbf"/>
    </g>
  </g>
</svg>